<svg width="28" height="16" viewBox="0 0 28 16" fill="none" xmlns="http://www.w3.org/2000/svg">
<path d="M25.3579 15.8037L2.0829 15.8037C1.67092 15.8036 1.26822 15.6814 0.925699 15.4525C0.58318 15.2235 0.316221 14.8982 0.158575 14.5176C0.000929024 14.1369 -0.0403269 13.7181 0.0400221 13.3141C0.120371 12.91 0.31872 12.5388 0.609989 12.2475L12.2475 0.609962C12.6382 0.219397 13.168 -1.26919e-05 13.7204 -1.26436e-05C14.2728 -1.25953e-05 14.8026 0.219397 15.1933 0.609962L26.8308 12.2475C27.1221 12.5388 27.3204 12.91 27.4008 13.3141C27.4811 13.7181 27.4399 14.1369 27.2822 14.5176C27.1246 14.8982 26.8576 15.2235 26.5151 15.4525C26.1726 15.6814 25.7699 15.8036 25.3579 15.8037Z" fill="white"/>
</svg>
