<svg width="54" height="53" viewBox="0 0 54 53" fill="none" xmlns="http://www.w3.org/2000/svg">
<g filter="url(#filter0_d_422_27)">
<path d="M3.76456 26.8333L11.1812 32.2499L8.36456 40.9729C7.90937 42.3258 7.90361 43.7895 8.34812 45.146C8.79263 46.5024 9.66361 47.6789 10.8312 48.4999C11.9788 49.3474 13.3695 49.8014 14.7961 49.7943C16.2227 49.7871 17.6088 49.3193 18.7479 48.4604L26 43.1229L33.2541 48.4541C34.3997 49.2967 35.7829 49.7544 37.2049 49.7613C38.6269 49.7682 40.0145 49.3241 41.1682 48.4927C42.3219 47.6613 43.1823 46.4855 43.6256 45.1343C44.0689 43.7831 44.0723 42.3261 43.6354 40.9729L40.8187 32.2499L48.2354 26.8333C49.3794 25.9968 50.2299 24.8203 50.6653 23.4716C51.1007 22.1229 51.0987 20.6712 50.6597 19.3237C50.2207 17.9762 49.3671 16.8019 48.2208 15.9685C47.0746 15.1351 45.6943 14.6853 44.2771 14.6833H35.1666L32.4021 6.06661C31.9673 4.71028 31.113 3.52706 29.9624 2.68758C28.8118 1.84811 27.4243 1.39575 26 1.39575C24.5757 1.39575 23.1882 1.84811 22.0375 2.68758C20.8869 3.52706 20.0326 4.71028 19.5979 6.06661L16.8333 14.6833H7.73122C6.31402 14.6853 4.93371 15.1351 3.78743 15.9685C2.64116 16.8019 1.78756 17.9762 1.34856 19.3237C0.909562 20.6712 0.907619 22.1229 1.34301 23.4716C1.7784 24.8203 2.62885 25.9968 3.77289 26.8333H3.76456Z" fill="white"/>
</g>
<defs>
<filter id="filter0_d_422_27" x="0" y="0" width="54" height="54" filterUnits="userSpaceOnUse" color-interpolation-filters="sRGB">
<feFlood flood-opacity="0" result="BackgroundImageFix"/>
<feColorMatrix in="SourceAlpha" type="matrix" values="0 0 0 0 0 0 0 0 0 0 0 0 0 0 0 0 0 0 127 0" result="hardAlpha"/>
<feOffset dx="1" dy="1"/>
<feGaussianBlur stdDeviation="1"/>
<feColorMatrix type="matrix" values="0 0 0 0 0 0 0 0 0 0 0 0 0 0 0 0 0 0 0.1 0"/>
<feBlend mode="normal" in2="BackgroundImageFix" result="effect1_dropShadow_422_27"/>
<feBlend mode="normal" in="SourceGraphic" in2="effect1_dropShadow_422_27" result="shape"/>
</filter>
</defs>
</svg>
