<svg width="54" height="54" viewBox="0 0 54 54" fill="none" xmlns="http://www.w3.org/2000/svg">
<g clip-path="url(#clip0_422_20)" filter="url(#filter0_d_422_20)">
<path d="M51 15.5833V17.6667H1V15.5833C1 9.83125 5.66458 5.16667 11.4167 5.16667H13.5V3.08333C13.5 1.93333 14.4333 1 15.5833 1C16.7333 1 17.6667 1.93333 17.6667 3.08333V5.16667H34.3333V3.08333C34.3333 1.93333 35.2667 1 36.4167 1C37.5667 1 38.5 1.93333 38.5 3.08333V5.16667H40.5833C46.3354 5.16667 51 9.83125 51 15.5833ZM51 36.4167C51 44.4583 44.4562 51 36.4167 51C28.3771 51 21.8333 44.4583 21.8333 36.4167C21.8333 28.375 28.3771 21.8333 36.4167 21.8333C44.4562 21.8333 51 28.375 51 36.4167ZM40.5833 37.6375L38.5 35.5542V32.25C38.5 31.1 37.5667 30.1667 36.4167 30.1667C35.2667 30.1667 34.3333 31.1 34.3333 32.25V36.4167C34.3333 36.9688 34.5521 37.5 34.9437 37.8896L37.6375 40.5833C38.45 41.3958 39.7708 41.3958 40.5833 40.5833C41.3958 39.7708 41.3958 38.45 40.5833 37.6375ZM17.6667 36.4167C17.6667 30.5229 20.3917 25.2708 24.6437 21.8333H1V40.5833C1 46.3354 5.66458 51 11.4167 51H24.6437C20.3917 47.5625 17.6667 42.3104 17.6667 36.4167Z" fill="white"/>
</g>
<defs>
<filter id="filter0_d_422_20" x="0" y="0" width="54" height="54" filterUnits="userSpaceOnUse" color-interpolation-filters="sRGB">
<feFlood flood-opacity="0" result="BackgroundImageFix"/>
<feColorMatrix in="SourceAlpha" type="matrix" values="0 0 0 0 0 0 0 0 0 0 0 0 0 0 0 0 0 0 127 0" result="hardAlpha"/>
<feOffset dx="1" dy="1"/>
<feGaussianBlur stdDeviation="1"/>
<feColorMatrix type="matrix" values="0 0 0 0 0 0 0 0 0 0 0 0 0 0 0 0 0 0 0.1 0"/>
<feBlend mode="normal" in2="BackgroundImageFix" result="effect1_dropShadow_422_20"/>
<feBlend mode="normal" in="SourceGraphic" in2="effect1_dropShadow_422_20" result="shape"/>
</filter>
<clipPath id="clip0_422_20">
<rect width="50" height="50" fill="white" transform="translate(1 1)"/>
</clipPath>
</defs>
</svg>
