<svg width="54" height="54" viewBox="0 0 54 54" fill="none" xmlns="http://www.w3.org/2000/svg">
<g clip-path="url(#clip0_422_18)" filter="url(#filter0_d_422_18)">
<path d="M51 22.5063C50.8187 29.3188 48.5917 34.7313 44.3771 38.5896C38.9458 43.5667 31.7042 44.5542 28.1062 44.7209V48.9167C28.1062 50.0688 27.175 51 26.0229 51C24.8708 51 23.9396 50.0688 23.9396 48.9167V44.7209C20.3437 44.5542 13.1042 43.5667 7.67083 38.5896C3.46042 34.7292 1.23125 29.3188 1.05 22.5063C1.01458 21.1542 1.575 19.8458 2.58542 18.9188C3.60625 17.9834 4.975 17.5354 6.34166 17.6979C18.125 19.0604 23.5396 26.9375 26.0229 33.4667C28.5062 26.9375 33.9229 19.0584 45.7062 17.6979C47.0687 17.5417 48.4375 17.9834 49.4583 18.9167C50.4708 19.8438 51.0354 21.1521 51 22.5063ZM20.1583 10.8292L23.9167 7.2146V19.75C23.9167 20.9 24.8479 21.8334 26 21.8334C27.1521 21.8334 28.0833 20.9 28.0833 19.75V7.18752L31.8417 10.8292C32.2458 11.2209 32.7687 11.4167 33.2917 11.4167C33.8354 11.4167 34.3771 11.2042 34.7875 10.7834C35.5896 9.95835 35.5687 8.6396 34.7437 7.83752L28.9458 2.22085C27.3208 0.597935 24.6771 0.595851 23.0771 2.19793L17.2583 7.83752C16.4333 8.6396 16.4125 9.95835 17.2146 10.7834C18.0187 11.6104 19.3333 11.6271 20.1583 10.8292Z" fill="white"/>
</g>
<defs>
<filter id="filter0_d_422_18" x="0" y="0" width="54" height="54" filterUnits="userSpaceOnUse" color-interpolation-filters="sRGB">
<feFlood flood-opacity="0" result="BackgroundImageFix"/>
<feColorMatrix in="SourceAlpha" type="matrix" values="0 0 0 0 0 0 0 0 0 0 0 0 0 0 0 0 0 0 127 0" result="hardAlpha"/>
<feOffset dx="1" dy="1"/>
<feGaussianBlur stdDeviation="1"/>
<feColorMatrix type="matrix" values="0 0 0 0 0 0 0 0 0 0 0 0 0 0 0 0 0 0 0.1 0"/>
<feBlend mode="normal" in2="BackgroundImageFix" result="effect1_dropShadow_422_18"/>
<feBlend mode="normal" in="SourceGraphic" in2="effect1_dropShadow_422_18" result="shape"/>
</filter>
<clipPath id="clip0_422_18">
<rect width="50" height="50" fill="white" transform="translate(1 1)"/>
</clipPath>
</defs>
</svg>
