<svg width="54" height="54" viewBox="0 0 54 54" fill="none" xmlns="http://www.w3.org/2000/svg">
<g clip-path="url(#clip0_422_16)" filter="url(#filter0_d_422_16)">
<path d="M48.917 15.5836H46.8336C45.6816 15.5836 44.7503 14.6523 44.7503 13.5002C44.7503 12.3481 45.6816 11.4169 46.8336 11.4169H48.917C50.0691 11.4169 51.0003 12.3481 51.0003 13.5002C51.0003 14.6523 50.0691 15.5836 48.917 15.5836ZM42.4212 31.8065C43.3295 31.0961 43.4878 29.7877 42.7774 28.8836L41.1462 26.8002C40.4357 25.8919 39.1253 25.7315 38.2232 26.444C37.3149 27.1544 37.1566 28.4627 37.867 29.3669L39.4982 31.4502C39.9086 31.9752 40.5211 32.2502 41.1399 32.2502C41.5899 32.2502 42.042 32.1065 42.4212 31.8065ZM48.8961 23.8981C49.4607 22.8961 49.1066 21.6231 48.1045 21.0606L46.2545 20.019C45.2503 19.4502 43.9795 19.8106 43.417 20.8106C42.8524 21.8127 43.2066 23.0856 44.2086 23.6481L46.0587 24.6898C46.3816 24.8731 46.7337 24.9586 47.0795 24.9586C47.8087 24.9586 48.5128 24.5752 48.8961 23.8981ZM38.9191 20.644L39.8649 18.8231C40.642 17.3231 40.7837 15.6169 40.2628 14.0106C39.742 12.4044 38.6232 11.1065 37.192 10.394L24.3607 3.27522C16.1399 -0.997697 9.96281 1.7148 7.0149 3.71064C5.77115 4.55022 5.08365 5.94397 5.17531 7.43772C5.26489 8.91272 6.10448 10.1961 7.41698 10.8752L30.5357 23.3294C31.4378 23.7898 32.4024 24.0086 33.3566 24.0086C35.6191 24.0086 37.8087 22.7773 38.9191 20.644ZM13.8441 19.0711L1.65448 41.969C0.148228 45.0002 1.3649 48.7336 4.36906 50.2961C5.27323 50.7669 6.25448 51.0023 7.24198 51.0023C7.89406 51.0023 8.55031 50.9002 9.1899 50.6919C10.7961 50.1669 12.0961 49.044 12.8191 47.5836L24.8357 24.9919L13.8441 19.0711Z" fill="white"/>
</g>
<defs>
<filter id="filter0_d_422_16" x="0" y="0" width="54" height="54" filterUnits="userSpaceOnUse" color-interpolation-filters="sRGB">
<feFlood flood-opacity="0" result="BackgroundImageFix"/>
<feColorMatrix in="SourceAlpha" type="matrix" values="0 0 0 0 0 0 0 0 0 0 0 0 0 0 0 0 0 0 127 0" result="hardAlpha"/>
<feOffset dx="1" dy="1"/>
<feGaussianBlur stdDeviation="1"/>
<feColorMatrix type="matrix" values="0 0 0 0 0 0 0 0 0 0 0 0 0 0 0 0 0 0 0.1 0"/>
<feBlend mode="normal" in2="BackgroundImageFix" result="effect1_dropShadow_422_16"/>
<feBlend mode="normal" in="SourceGraphic" in2="effect1_dropShadow_422_16" result="shape"/>
</filter>
<clipPath id="clip0_422_16">
<rect width="50" height="50" fill="white" transform="translate(1 1)"/>
</clipPath>
</defs>
</svg>
