<svg width="54" height="54" viewBox="0 0 54 54" fill="none" xmlns="http://www.w3.org/2000/svg">
<g clip-path="url(#clip0_422_25)" filter="url(#filter0_d_422_25)">
<path d="M30.1667 9.33333C30.1667 8.18333 31.0979 7.25 32.25 7.25H36.4167C41.0125 7.25 44.75 10.9875 44.75 15.5833V19.75C44.75 20.9 43.8187 21.8333 42.6667 21.8333C41.5146 21.8333 40.5833 20.9 40.5833 19.75V15.5833C40.5833 13.2854 38.7146 11.4167 36.4167 11.4167H32.25C31.0979 11.4167 30.1667 10.4833 30.1667 9.33333ZM19.75 40.5833H15.5833C13.2854 40.5833 11.4167 38.7146 11.4167 36.4167V32.25C11.4167 31.1 10.4854 30.1667 9.33333 30.1667C8.18125 30.1667 7.25 31.1 7.25 32.25V36.4167C7.25 41.0125 10.9875 44.75 15.5833 44.75H19.75C20.9021 44.75 21.8333 43.8167 21.8333 42.6667C21.8333 41.5167 20.9021 40.5833 19.75 40.5833ZM26 13.5C26 20.3937 20.3937 26 13.5 26C6.60625 26 1 20.3937 1 13.5C1 6.60625 6.60625 1 13.5 1C20.3937 1 26 6.60625 26 13.5ZM9.33333 9.33333C9.33333 11.6354 11.1979 13.5 13.5 13.5C15.8021 13.5 17.6667 11.6354 17.6667 9.33333C17.6667 7.03125 15.8021 5.16667 13.5 5.16667C11.1979 5.16667 9.33333 7.03125 9.33333 9.33333ZM19.2833 19.4792C18.3562 17.1979 16.1292 15.5833 13.5167 15.5833H13.4833C10.8708 15.5833 8.63958 17.1958 7.71458 19.475C9.21458 20.9292 11.2521 21.8333 13.5021 21.8333C15.7521 21.8333 17.7833 20.9312 19.2854 19.4792H19.2833ZM51 38.5C51 45.3937 45.3937 51 38.5 51C31.6062 51 26 45.3937 26 38.5C26 31.6062 31.6062 26 38.5 26C45.3937 26 51 31.6062 51 38.5ZM34.3333 34.3333C34.3333 36.6354 36.1979 38.5 38.5 38.5C40.8021 38.5 42.6667 36.6354 42.6667 34.3333C42.6667 32.0312 40.8021 30.1667 38.5 30.1667C36.1979 30.1667 34.3333 32.0312 34.3333 34.3333ZM44.2833 44.4792C43.3562 42.1979 41.1292 40.5833 38.5167 40.5833H38.4833C35.8708 40.5833 33.6396 42.1958 32.7146 44.475C34.2146 45.9292 36.2521 46.8333 38.5021 46.8333C40.7521 46.8333 42.7833 45.9313 44.2854 44.4792H44.2833Z" fill="white"/>
</g>
<defs>
<filter id="filter0_d_422_25" x="0" y="0" width="54" height="54" filterUnits="userSpaceOnUse" color-interpolation-filters="sRGB">
<feFlood flood-opacity="0" result="BackgroundImageFix"/>
<feColorMatrix in="SourceAlpha" type="matrix" values="0 0 0 0 0 0 0 0 0 0 0 0 0 0 0 0 0 0 127 0" result="hardAlpha"/>
<feOffset dx="1" dy="1"/>
<feGaussianBlur stdDeviation="1"/>
<feColorMatrix type="matrix" values="0 0 0 0 0 0 0 0 0 0 0 0 0 0 0 0 0 0 0.1 0"/>
<feBlend mode="normal" in2="BackgroundImageFix" result="effect1_dropShadow_422_25"/>
<feBlend mode="normal" in="SourceGraphic" in2="effect1_dropShadow_422_25" result="shape"/>
</filter>
<clipPath id="clip0_422_25">
<rect width="50" height="50" fill="white" transform="translate(1 1)"/>
</clipPath>
</defs>
</svg>
