<svg width="40" height="39" viewBox="0 0 40 39" fill="none" xmlns="http://www.w3.org/2000/svg">
<path d="M20 0.25C30.9136 0.25 39.75 8.87445 39.75 19.5C39.75 30.1256 30.9136 38.75 20 38.75C9.08637 38.75 0.25 30.1256 0.25 19.5C0.25 8.87445 9.08637 0.25 20 0.25Z" fill="#EAEAEA"/>
<path d="M20 0.25C30.9136 0.25 39.75 8.87445 39.75 19.5C39.75 30.1256 30.9136 38.75 20 38.75C9.08637 38.75 0.25 30.1256 0.25 19.5C0.25 8.87445 9.08637 0.25 20 0.25Z" fill="#EE7F2B"/>
<path d="M20 0.25C30.9136 0.25 39.75 8.87445 39.75 19.5C39.75 30.1256 30.9136 38.75 20 38.75C9.08637 38.75 0.25 30.1256 0.25 19.5C0.25 8.87445 9.08637 0.25 20 0.25Z" stroke="#8A8A8A" stroke-width="0.5"/>
<path d="M20 22C24.1421 22 27.5 18.6421 27.5 14.5C27.5 10.3579 24.1421 7 20 7C15.8579 7 12.5 10.3579 12.5 14.5C12.5 18.6421 15.8579 22 20 22Z" fill="white"/>
<path d="M20 24.5C13.7896 24.5069 8.75691 29.5397 8.75 35.75C8.75 36.4404 9.30963 37 9.99998 37H30C30.6903 37 31.2499 36.4404 31.2499 35.75C31.2431 29.5397 26.2104 24.5069 20 24.5Z" fill="white"/>
</svg>
