<svg width="24" height="42" viewBox="0 0 24 42" fill="none" xmlns="http://www.w3.org/2000/svg">
<path d="M6.43981 31.5401L4.00825 33.9717L3.12436 33.0878C1.87167 31.8618 0.980822 30.3146 0.549554 28.6157C0.118287 26.9168 0.163261 25.132 0.679542 23.457C1.2267 21.8455 2.06894 20.3498 3.16325 19.0464C3.28759 20.2184 3.45111 21.4326 3.65381 22.6889C4.31011 25.7182 5.24268 28.681 6.43981 31.5401ZM20.2682 22.6845C19.6136 25.7152 18.6825 28.6794 17.4866 31.5401L19.9182 33.9717L20.802 33.0878C22.0547 31.8619 22.9456 30.3146 23.3768 28.6157C23.8081 26.9168 23.7631 25.132 23.2469 23.457C22.6997 21.8455 21.8575 20.3498 20.7631 19.0464C20.6394 20.2131 20.4744 21.4258 20.2682 22.6845ZM14.6069 2.14391C18.3369 6.10901 19.3825 12.6948 17.8048 22.2805C17.2705 24.7841 16.5175 27.236 15.5544 29.6079L15.0568 29.1103C14.2336 28.295 13.1218 27.8376 11.9632 27.8376C10.8046 27.8376 9.69281 28.295 8.86961 29.1103L8.37198 29.6079C7.40975 27.2352 6.6582 24.7824 6.12603 22.2779C4.54742 12.7107 5.58686 6.13111 9.30094 2.16247C11.2154 0.247977 12.7454 0.282449 14.6069 2.14391ZM14.1729 12.3165C13.5869 11.7305 12.792 11.4012 11.9632 11.4012C11.1344 11.4012 10.3395 11.7305 9.75349 12.3165C9.16744 12.9026 8.8382 13.6974 8.8382 14.5262C8.8382 15.355 9.16744 16.1499 9.75349 16.7359C10.3395 17.322 11.1344 17.6512 11.9632 17.6512C12.792 17.6512 13.5869 17.322 14.1729 16.7359C14.759 16.1499 15.0882 15.355 15.0882 14.5262C15.0882 13.6974 14.759 12.9026 14.1729 12.3165ZM12.9876 40.5221C13.8061 39.3501 15.7126 36.4571 15.7135 34.8547C15.7135 34.3622 15.6165 33.8745 15.428 33.4195C15.2396 32.9645 14.9633 32.551 14.6151 32.2028C14.2668 31.8545 13.8534 31.5783 13.3984 31.3898C12.9434 31.2014 12.4557 31.1044 11.9632 31.1044C11.4707 31.1043 10.983 31.2014 10.528 31.3898C10.073 31.5783 9.65957 31.8545 9.31132 32.2028C8.608 32.9061 8.21288 33.86 8.21288 34.8547C8.21377 36.4571 10.1194 39.351 10.9388 40.5221L11.9632 41.9832L12.9876 40.5221Z" fill="white"/>
</svg>
