<svg width="31" height="35" viewBox="0 0 31 35" fill="none" xmlns="http://www.w3.org/2000/svg">
<path d="M15.4242 35.0131L14.9079 34.7842C14.3333 34.5319 0.916664 28.4725 0.916664 17.5V7.98583C0.917176 7.07025 1.20656 6.17816 1.7436 5.43662C2.28064 4.69508 3.03796 4.14189 3.90771 3.85583L15.5 0.0131226L27.0923 3.85583C27.962 4.14189 28.7194 4.69508 29.2564 5.43662C29.7934 6.17816 30.0828 7.07025 30.0833 7.98583V17.5C30.0833 30.0081 16.5383 34.6427 15.9608 34.8352L15.4242 35.0131ZM15.5 3.07125L4.83083 6.60916C4.54054 6.70398 4.2877 6.88823 4.10852 7.13551C3.92934 7.3828 3.83301 7.68045 3.83333 7.98583V17.5C3.83333 25.5121 13.225 30.7096 15.5685 31.8806C17.9077 30.94 27.1667 26.6335 27.1667 17.5V7.98583C27.167 7.68045 27.0707 7.3828 26.8915 7.13551C26.7123 6.88823 26.4595 6.70398 26.1692 6.60916L15.5 3.07125Z" fill="black"/>
<path d="M14.2035 21.2071H14.1554C13.7863 21.2014 13.4222 21.121 13.085 20.9706C12.7479 20.8202 12.4448 20.603 12.194 20.3321L8.83104 16.8321L10.9325 14.8166L14.205 18.2291L21.7606 10.6735L23.8227 12.7356L16.1504 20.4079C15.8949 20.6632 15.5912 20.8653 15.257 21.0025C14.9228 21.1397 14.5648 21.2092 14.2035 21.2071Z" fill="black"/>
</svg>
